<svg height="512" viewBox="0 0 64 64" width="512" xmlns="http://www.w3.org/2000/svg"><g id="Half_Moon" data-name="Half Moon"><path d="m63.787 47.142a1 1 0 0 0 -1.111-.33 33.686 33.686 0 0 1 -10.936 1.8c-17.9 0-32.467-13.874-32.467-30.926a29.717 29.717 0 0 1 4.774-16.144 1 1 0 0 0 -1.162-1.488c-13.685 4.661-22.885 17.127-22.885 31.019 0 18.156 15.462 32.927 34.467 32.927a34.63 34.63 0 0 0 29.374-15.7 1 1 0 0 0 -.054-1.158z"/><path d="m32.5 25.5a4 4 0 0 1 4 4 1 1 0 0 0 2 0 4 4 0 0 1 4-4 1 1 0 0 0 0-2 4 4 0 0 1 -4-4 1 1 0 0 0 -2 0 4 4 0 0 1 -4 4 1 1 0 0 0 0 2z"/><path d="m47 19a4 4 0 0 1 4 4 1 1 0 0 0 2 0 4 4 0 0 1 4-4 1 1 0 0 0 0-2 4 4 0 0 1 -4-4 1 1 0 0 0 -2 0 4 4 0 0 1 -4 4 1 1 0 0 0 0 2z"/><path d="m41 37a1 1 0 0 0 1 1 4 4 0 0 1 4 4 1 1 0 0 0 2 0 4 4 0 0 1 4-4 1 1 0 0 0 0-2 4 4 0 0 1 -4-4 1 1 0 0 0 -2 0 4 4 0 0 1 -4 4 1 1 0 0 0 -1 1z"/></g></svg>