<svg height="511pt" viewBox="0 -15 511.99995 511" width="511pt" xmlns="http://www.w3.org/2000/svg"><path d="m329.191406 8.375c-5.699218-10.5-20.695312-10.5-26.394531 0l-29.699219 54.589844 35.695313 65.398437c6.898437-3.902343 16.199219-1.800781 20.398437 5.996094l79.191406 143.984375c5.289063 9.824219-1.773437 22.199219-13.199218 22.199219-14.183594 0-149.902344 0-143.382813 0l-33.296875 59.992187c3.417969 0 282.710938 0 278.46875 0 11.398438 0 18.597656-12.300781 13.199219-22.195312zm0 0"/><path d="m241.902344 255.847656-34.496094-62.695312c-1.707031 3.132812-146.242188 268.207031-144.585938 265.171875-5.398437 9.898437 1.800782 22.199219 13.199219 22.199219h359.960938c11.398437 0 18.597656-12.300782 13.199219-22.199219l-36.894532-67.792969h-68.09375l4.199219 7.800781c5.398437 9.898438-1.800781 22.195313-13.199219 22.195313h-158.382812c-11.398438 0-18.597656-12.296875-13.199219-22.195313 43.738281-79.597656 80.445313-146.382812 78.292969-142.484375zm0 0"/><path d="m15.027344 360.535156h66.992187l32.996094-60.292968h-.300781c-10.199219-1.199219-16.195313-12.597657-11.097656-21.898438l79.191406-143.984375c5.871094-10.710937 21.234375-10.308594 26.394531 0 23.867187 43.050781 76.519531 138.960937 74.992187 136.1875h68.09375c-1.707031-3.132813-144.742187-265.203125-143.085937-262.171875-5.699219-10.5-20.695313-10.5-26.394531 0l-180.980469 329.964844c-5.398437 9.894531 1.800781 22.195312 13.199219 22.195312zm0 0"/></svg>