<svg xmlns="http://www.w3.org/2000/svg" version="1.1" xmlns:xlink="http://www.w3.org/1999/xlink" width="512" height="512" x="0" y="0" viewBox="0 0 512 511" style="enable-background:new 0 0 512 512" xml:space="preserve"><g><path d="M329.191 8.375c-5.699-10.5-20.695-10.5-26.394 0l-29.7 54.59 35.696 65.398c6.898-3.902 16.2-1.8 20.398 5.996l79.192 143.985c5.289 9.824-1.774 22.199-13.2 22.199H251.802l-33.297 59.992h278.469c11.398 0 18.597-12.3 13.199-22.195zm0 0" fill="#ffffff" opacity="1" data-original="#000000"></path><path d="m241.902 255.848-34.496-62.696C205.7 196.285 61.164 461.36 62.82 458.324c-5.398 9.899 1.801 22.2 13.2 22.2h359.96c11.399 0 18.598-12.301 13.2-22.2l-36.895-67.793h-68.094l4.2 7.801c5.398 9.898-1.801 22.195-13.2 22.195H176.81c-11.399 0-18.598-12.297-13.2-22.195 43.739-79.598 80.446-146.383 78.293-142.484zm0 0" fill="#ffffff" opacity="1" data-original="#000000"></path><path d="M15.027 360.535H82.02l32.996-60.293h-.301c-10.2-1.199-16.195-12.597-11.098-21.898l79.192-143.985c5.87-10.71 21.234-10.308 26.394 0 23.867 43.051 76.52 138.961 74.992 136.188h68.094C350.582 267.414 207.547 5.344 209.203 8.375c-5.7-10.5-20.695-10.5-26.394 0L1.829 338.34c-5.4 9.894 1.8 22.195 13.198 22.195zm0 0" fill="#ffffff" opacity="1" data-original="#000000"></path></g></svg>